<mxfile host="app.diagrams.net" modified="2024-07-20T10:16:59.714Z" agent="Mozilla/5.0 (Macintosh; Intel Mac OS X 10_15_7) AppleWebKit/537.36 (KHTML, like Gecko) Chrome/125.0.0.0 Safari/537.36" etag="C7shlg2Y1-i1jSHtpA4f" version="24.7.2" type="github">
  <diagram name="第 1 页" id="g6CvxwyKXsx-Wkx9vgeh">
    <mxGraphModel dx="1434" dy="761" grid="1" gridSize="10" guides="1" tooltips="1" connect="1" arrows="1" fold="1" page="1" pageScale="1" pageWidth="827" pageHeight="1169" math="0" shadow="0">
      <root>
        <mxCell id="0" />
        <mxCell id="1" parent="0" />
        <mxCell id="JE6O_fZ9xA0qBkAR_-J4-1" value="Java" style="rounded=1;whiteSpace=wrap;html=1;" vertex="1" parent="1">
          <mxGeometry x="340" y="390" width="90" height="30" as="geometry" />
        </mxCell>
        <mxCell id="JE6O_fZ9xA0qBkAR_-J4-3" value="JVM" style="rounded=1;whiteSpace=wrap;html=1;" vertex="1" parent="1">
          <mxGeometry x="340" y="440" width="90" height="30" as="geometry" />
        </mxCell>
      </root>
    </mxGraphModel>
  </diagram>
</mxfile>
